# xmcd
#
# Track frame offsets:
#	150
#	24871
#	40472
#	57879
#	76232
#	94839
#	111542
#	125282
#	143177
#	158966
#	174856
#	194991
#	213763
#
# Disc length: 3103 seconds
#
# Revision: 3
# Processed by: cddbd v1.5.1PL2 Copyright (c) Steve Scherf et al.
# Submitted via: audiograbber 1.83.01
#
DISCID=b10c1d0d
DTITLE=Faith Hill - Breathe
DYEAR=1999
DGENRE=Contemporary Country
TTITLE0=What's In It For Me
TTITLE1=I Got My Baby
TTITLE2=Love Is A Sweet Thing
TTITLE3=Breathe
TTITLE4=Let's Make Love (With Tim Mcgr
TTITLE5=It Will Be Me
TTITLE6=The Way You Love Me
TTITLE7=If I'm Not In Love
TTITLE8=Bringing Out The Elvis
TTITLE9=If My Heart Had Wings
TTITLE10=If I Should Fall Behind
TTITLE11=That's How Love Moves
TTITLE12=There Will Come A Day
EXTD=
EXTT0=
EXTT1=
EXTT2=
EXTT3=
EXTT4=
EXTT5=
EXTT6=
EXTT7=
EXTT8=
EXTT9=
EXTT10=
EXTT11=
EXTT12=
PLAYORDER=
